<?xml version="1.0" encoding="UTF-8" standalone="no"?>
<svg width="297px" height="581px" viewBox="0 0 297 581" version="1.1" xmlns="http://www.w3.org/2000/svg" xmlns:xlink="http://www.w3.org/1999/xlink" xmlns:sketch="http://www.bohemiancoding.com/sketch/ns">
    <title>Slice 1</title>
    <description>Created with Sketch (http://www.bohemiancoding.com/sketch)</description>
    <defs></defs>
    <g id="Page 1" stroke="none" stroke-width="1" fill="none" fill-rule="evenodd">
        <path d="M254.906379,6.98065348 C297.184084,19.3736416 297.170626,41.9054253 297.170622,41.911401 L297.170624,532.269628 C297.170624,532.269628 297.077988,559.319633 254.906374,573.724401 C232.01775,581.542581 174.792256,580.995885 148.67061,580.995885 C122.548969,580.995885 63.2911612,581.542582 40.4025412,573.724401 C-1.76906627,559.319634 0.170621887,532.269628 0.170621887,532.269628 L0.170621886,41.911401 C0.170621886,41.911401 -1.88077713,19.3752792 40.4025421,6.98065348 C63.2383565,0.28672547 122.632827,-0.00410721897 148.670633,-0.00411491008 C174.708436,-0.00411491008 232.070567,0.28672542 254.906379,6.98065348 Z M254.687218,35 C258.277069,35 261.187218,32.0898511 261.187218,28.5 C261.187218,24.9101489 258.277069,22 254.687218,22 C251.097367,22 248.187218,24.9101489 248.187218,28.5 C248.187218,32.0898511 251.097367,35 254.687218,35 Z M148.710705,9 C131.921049,9.00000035 116.828223,9.9331299 116.828223,9.9331299 C115.730945,9.99550597 115.365759,10.7659583 116.013784,11.6556678 L119.462359,16.3904039 C120.109835,17.2793593 121.537026,18 122.627788,18 L174.641649,18 C175.74239,18 177.161963,17.2659705 177.804659,16.3712105 L181.177994,11.6748613 C181.824135,10.7753057 181.446393,9.99275877 180.349868,9.93113145 C180.349868,9.93113145 165.50036,9 148.710705,9 Z M13.1872182,68 L13.1872182,520.995885 L283.187218,520.995885 L283.187218,68 Z M13.1872182,68" id="Google Nexus 4" fill="#000000"></path>
    </g>
</svg>